File Name

I Love You Phillip Morris 2009 BRRip LKRG-Wrath.mp4

File Size
Format : MPEG-4
Format profile : Base Media
Codec ID : isom
File size : 2.45 GiB
Duration : 1h 37mn
Overall bit rate : 3 594 Kbps

Video
ID : 1
Format : AVC
Format/Info : Advanced Video Codec
Format profile : High@L4.1
Format settings, CABAC : Yes
Format settings, ReFrames : 3 frames
Codec ID : avc1
Codec ID/Info : Advanced Video Coding
Duration : 1h 37mn
Bit rate mode : Variable
Bit rate : 3 016 Kbps
Maximum bit rate : 23.6 Mbps
Width : 1 280 pixels
Height : 720 pixels
Display aspect ratio : 16:9
Frame rate mode : Constant
Frame rate : 24.000 fps
Resolution : 24 bits
Colorimetry : 4:2:0
Scan type : Progressive
Bits/(Pixel*Frame) : 0.136
Stream size : 2.05 GiB (84%)

Audio #1
ID : 2
Format : AAC
Format/Info : Advanced Audio Codec
Format version : Version 4
Format profile : LC
Format settings, SBR : No
Codec ID : 40
Duration : 1h 37mn
Bit rate mode : Variable
Bit rate : 128 Kbps
Maximum bit rate : 133 Kbps
Channel(s) : 2 channels
Channel positions : L R
Sampling rate : 48.0 KHz
Resolution : 16 bits
Stream size : 89.3 MiB (4%)

Audio #2
ID : 3
Format : AAC
Format/Info : Advanced Audio Codec
Format version : Version 4
Format profile : LC
Format settings, SBR : No
Codec ID : 40
Duration : 1h 37mn
Bit rate mode : Variable
Bit rate : 448 Kbps
Maximum bit rate : 462 Kbps
Channel(s) : 6 channels
Channel positions : Front: L C R, Rear: L R, LFE
Sampling rate : 48.0 KHz
Resolution : 16 bits
Stream size : 312 MiB (12%)

English SRT : N/A

Language : English

 
http://www.imdb.com/title/tt1045772/

Release Date: October 2010 (USA) 

Genre: Comedy | Drama 

Plot: Steven Russell is happily married to Debbie, and a member of the local police force when a car accident provokes a dramatic reassessment of his life...

Cast: 
Jim Carrey ... Steven Russell
Ewan McGregor ... Phillip Morris
Leslie Mann ... Debbie
Rodrigo Santoro ... Jimmy Kemple



Screenshots
 
http://postimg.com/image/18000/17171.jpg
 
http://postimg.com/image/18000/17175.jpg